<?xml version="1.0" standalone="no"?><!DOCTYPE svg PUBLIC "-//W3C//DTD SVG 1.1//EN"
        "http://www.w3.org/Graphics/SVG/1.1/DTD/svg11.dtd">
<svg xmlns:xlink="http://www.w3.org/1999/xlink" t="1735646175555" class="icon" viewBox="0 0 1024 1024" version="1.1"
     xmlns="http://www.w3.org/2000/svg" p-id="80974" width="128" height="128">
    <path d="M149.333333 938.666667a21.333333 21.333333 0 0 1-21.333333-21.333334v-106.666666a85.426667 85.426667 0 0 1-85.333333-85.333334V213.333333a85.426667 85.426667 0 0 1 85.333333-85.333333h768a85.426667 85.426667 0 0 1 85.333333 85.333333v512a85.426667 85.426667 0 0 1-85.333333 85.333334H286.166667l-121.746667 121.753333A21.333333 21.333333 0 0 1 149.333333 938.666667zM128 170.666667a42.713333 42.713333 0 0 0-42.666667 42.666666v512a42.713333 42.713333 0 0 0 42.666667 42.666667h21.333333a21.333333 21.333333 0 0 1 21.333334 21.333333v76.5l91.58-91.586666A21.333333 21.333333 0 0 1 277.333333 768h618.666667a42.713333 42.713333 0 0 0 42.666667-42.666667V213.333333a42.713333 42.713333 0 0 0-42.666667-42.666666z"
          fill="#000000" p-id="80975"></path>
</svg>