<?xml version="1.0" standalone="no"?><!DOCTYPE svg PUBLIC "-//W3C//DTD SVG 1.1//EN" "http://www.w3.org/Graphics/SVG/1.1/DTD/svg11.dtd"><svg t="1735565462746" class="icon" viewBox="0 0 1024 1024" version="1.1" xmlns="http://www.w3.org/2000/svg" p-id="60296" xmlns:xlink="http://www.w3.org/1999/xlink" width="128" height="128"><path d="M836.266667 270.72H725.333333l-50.773333-62.08A102.613333 102.613333 0 0 0 594.56 170.666667h-165.12a102.613333 102.613333 0 0 0-80 37.973333L298.666667 270.72H187.733333A101.973333 101.973333 0 0 0 85.333333 372.053333v379.946667A101.973333 101.973333 0 0 0 187.733333 853.333333h648.533334a101.973333 101.973333 0 0 0 102.4-101.333333V372.053333a101.973333 101.973333 0 0 0-102.4-101.333333zM896 752A59.306667 59.306667 0 0 1 836.266667 810.666667H187.733333A59.306667 59.306667 0 0 1 128 752V372.053333a59.306667 59.306667 0 0 1 59.733333-58.666666H320l64-77.866667a59.52 59.52 0 0 1 46.72-21.333333h165.12a59.52 59.52 0 0 1 46.72 21.333333l64 77.866667h129.706667a59.306667 59.306667 0 0 1 59.733333 58.666666z" p-id="60297" fill="#000000"></path><path d="M512 384a170.666667 170.666667 0 1 0 170.666667 170.666667 170.666667 170.666667 0 0 0-170.666667-170.666667z m0 298.666667a128 128 0 1 1 128-128 128 128 0 0 1-128 128z" p-id="60298" fill="#000000"></path></svg>