<?xml version="1.0" standalone="no"?><!DOCTYPE svg PUBLIC "-//W3C//DTD SVG 1.1//EN" "http://www.w3.org/Graphics/SVG/1.1/DTD/svg11.dtd"><svg t="1735542761620" class="icon" viewBox="0 0 1024 1024" version="1.1" xmlns="http://www.w3.org/2000/svg" p-id="14748" xmlns:xlink="http://www.w3.org/1999/xlink" width="200" height="200"><path d="M546.842 95.147c-232.444 0-420.559 163.641-420.559 365.496 0 123.85 71.876 233.973 180.455 301.233v113.18c0 15.287 10.7 24.459 22.945 24.459 4.585 0 9.187-1.514 12.23-3.058l114.692-76.462c29.076 6.114 58.119 7.658 88.707 7.658 232.444 0 420.543-163.64 420.543-365.496 1.547-203.369-186.551-367.01-419.013-367.01z m0 671.333c-26.003 0-52.005-3.058-77.992-7.659l-12.245-3.057c-7.643-1.514-15.286 0-22.944 4.602l-10.686 7.627-55.06 36.719v-59.633c0-10.716-6.115-21.432-15.287-26.002l-15.301-9.172C242.505 653.3 185.93 560.038 185.93 462.16c0-168.211 160.583-304.306 359.382-304.306 198.814 0 359.366 136.095 359.366 304.306 1.548 166.682-160.55 304.32-357.837 304.32zM308.267 471.329" fill="#2c2c2c" p-id="14749"></path></svg>