<?xml version="1.0" standalone="no"?><!DOCTYPE svg PUBLIC "-//W3C//DTD SVG 1.1//EN" "http://www.w3.org/Graphics/SVG/1.1/DTD/svg11.dtd"><svg t="1735542982237" class="icon" viewBox="0 0 1024 1024" version="1.1" xmlns="http://www.w3.org/2000/svg" p-id="23918" xmlns:xlink="http://www.w3.org/1999/xlink" width="200" height="200"><path d="M512 42.666667c259.2 0 469.333333 210.133333 469.333333 469.333333s-210.133333 469.333333-469.333333 469.333333S42.666667 771.2 42.666667 512 252.8 42.666667 512 42.666667z m0 74.666666C294.037333 117.333333 117.333333 294.037333 117.333333 512S294.037333 906.666667 512 906.666667 906.666667 729.962667 906.666667 512 729.962667 117.333333 512 117.333333z" fill="#2c2c2c" p-id="23919"></path><path d="M424.96 438.293333L304.256 679.68c-12.842667 25.685333 14.378667 52.906667 40.064 40.064l241.365333-120.661333a29.866667 29.866667 0 0 0 13.354667-13.354667l120.661333-241.365333c12.842667-25.685333-14.378667-52.906667-40.064-40.064l-241.365333 120.661333a29.866667 29.866667 0 0 0-13.354667 13.354667z m48.96 35.626667l152.32-76.16-76.16 152.32-152.32 76.16 76.16-152.32z" fill="#2c2c2c" p-id="23920"></path></svg>