<?xml version="1.0" standalone="no"?><!DOCTYPE svg PUBLIC "-//W3C//DTD SVG 1.1//EN" "http://www.w3.org/Graphics/SVG/1.1/DTD/svg11.dtd"><svg class="icon" width="200px" height="200.00px" viewBox="0 0 1024 1024" version="1.1" xmlns="http://www.w3.org/2000/svg"><path d="M877.714286 0a146.285714 146.285714 0 0 1 146.285714 146.285714v731.428572a146.285714 146.285714 0 0 1-146.285714 146.285714H146.285714a146.285714 146.285714 0 0 1-146.285714-146.285714V146.285714a146.285714 146.285714 0 0 1 146.285714-146.285714h731.428572zM444.854857 281.837714a107.721143 107.721143 0 0 0-40.155428 64.548572 316.434286 316.434286 0 0 0-2.267429 90.843428 160.658286 160.658286 0 0 0 32.292571 82.212572c37.540571 46.537143 24.027429 67.931429 21.394286 70.564571a158.025143 158.025143 0 0 1-100.224 52.553143c-5.997714 0-13.129143 3.382857-20.278857 4.498286-15.707429 3.346286-30.701714 9.453714-44.288 18.029714a90.843429 90.843429 0 0 0-34.157714 64.548571c-1.152 12.489143-1.152 25.051429 0 37.540572h525.531428a112.603429 112.603429 0 0 0-35.291428-100.973714 139.264 139.264 0 0 0-42.788572-18.011429c-7.131429 0-14.262857-3.382857-21.778285-4.516571a147.145143 147.145143 0 0 1-100.224-52.534858c0-2.267429-16.512-24.027429 21.76-70.582857a169.289143 169.289143 0 0 0 31.908571-83.328c3.218286-29.915429 1.938286-60.16-3.748571-89.709714a108.105143 108.105143 0 0 0-37.540572-65.682286 122.752 122.752 0 0 0-150.125714 0z m75.081143 322.816l37.522286 103.972572-37.522286 37.540571-37.540571-37.540571 37.540571-103.972572z" fill="#3786EE" /></svg>