<?xml version="1.0" standalone="no"?><!DOCTYPE svg PUBLIC "-//W3C//DTD SVG 1.1//EN" "http://www.w3.org/Graphics/SVG/1.1/DTD/svg11.dtd"><svg class="icon" width="200px" height="200.00px" viewBox="0 0 1024 1024" version="1.1" xmlns="http://www.w3.org/2000/svg"><path d="M952.32 1013.76H71.68c-33.792 0-61.44-27.648-61.44-61.44V71.68C10.24 37.888 37.888 10.24 71.68 10.24h880.64c33.792 0 61.44 27.648 61.44 61.44v880.64c0 33.792-27.648 61.44-61.44 61.44z" fill="#F89F3D" /><path d="M518.656 201.216c-172.032 0-311.296 123.904-311.296 276.992 0 89.6 44.032 169.472 118.272 220.16 0.512 0.512 0 124.416 0 124.416L442.88 747.52c23.04 4.608 48.64 7.68 73.216 7.68 172.032 0 312.32-123.904 312.32-276.992 0-153.088-138.24-276.992-309.76-276.992z" fill="#FEFEFD" /><path d="M518.656 720.384c-27.648 0-58.88-3.584-83.968-10.24l-77.824 48.128v-78.336c0-3.072-5.632-6.144-10.752-9.216-66.048-44.032-106.496-114.176-106.496-192.512 0-133.632 124.928-242.176 277.504-242.176s276.992 108.544 276.992 242.176c0.512 133.632-122.88 242.176-275.456 242.176z" fill="#FEFEFD" /><path d="M666.112 643.072H369.664c-18.432 0-14.336-29.184-14.336-29.184-0.512-17.408 14.336-29.184 14.336-29.184s76.288-36.864 87.04-43.52c8.704-5.632 12.8-16.384 13.824-19.968-25.6-24.064-50.176-64.512-50.176-88.576v-36.352c-1.024-42.496 46.08-87.04 87.04-87.04h14.336c37.888-0.512 88.064 42.496 87.04 87.04v36.352c0 19.968-16.384 62.464-43.008 88.064 1.024 3.584 5.12 14.848 13.824 20.48 10.752 6.656 86.528 43.52 86.528 43.52s14.848 11.264 14.336 29.184c0.512 0 4.608 29.184-14.336 29.184z" fill="#F1A039" /><path d="M651.776 599.552l-86.528-43.52s-21.504-9.728-21.504-29.184v-13.824c28.672-16.896 43.52-62.976 43.52-86.528v-35.328c0-32.768-36.352-59.904-67.072-59.904h-11.264c-28.672 0-67.072 28.16-67.072 59.904v35.328c0 29.184 26.624 72.704 50.688 87.552v12.288c0 19.456-21.504 29.184-21.504 29.184L384 599.04c-10.24 8.704-7.168 21.504-7.168 21.504H658.944c0 1.024 3.072-12.288-7.168-20.992z" fill="#F1A039" /></svg>