<?xml version="1.0" standalone="no"?><!DOCTYPE svg PUBLIC "-//W3C//DTD SVG 1.1//EN" "http://www.w3.org/Graphics/SVG/1.1/DTD/svg11.dtd"><svg t="1735636562507" class="icon" viewBox="0 0 1024 1024" version="1.1" xmlns="http://www.w3.org/2000/svg" p-id="12322" xmlns:xlink="http://www.w3.org/1999/xlink" width="128" height="128"><path d="M991.712 862.72c-40.528-60.976-78.976-66.32-136.256-80.352-144.464-22.32-191.872-71.856-191.968-71.856l-4.224-4.528c-17.92-16.832-35.264-62.784-29.072-86.832 86.752-66.384 141.536-193.936 141.536-334.128C771.712 59.792 631.808 0 511.968 0c-119.808 0-259.68 59.76-259.68 285.024 0 140.176 54.832 267.728 141.552 334.128 4.832 30.704-15.44 73.92-29.104 86.816l-4.24 4.528c-0.096 0-47.488 49.552-191.968 71.856-57.264 14.048-95.696 19.392-136.256 80.352C0.608 910.336 0 1024 0 1024h1024s-0.592-113.664-32.288-161.28z" fill="#549FFF" p-id="12323"></path><path d="M315.232 739.728s196.768 174.272 393.552 0c0 0-196.784 446.272-393.552 0z" fill="#FFFFFF" p-id="12324"></path></svg>