<?xml version="1.0" standalone="no"?><!DOCTYPE svg PUBLIC "-//W3C//DTD SVG 1.1//EN" "http://www.w3.org/Graphics/SVG/1.1/DTD/svg11.dtd"><svg t="1735559466681" class="icon" viewBox="0 0 1024 1024" version="1.1" xmlns="http://www.w3.org/2000/svg" p-id="38369" xmlns:xlink="http://www.w3.org/1999/xlink" width="200" height="200"><path d="M493.714286 1009.371429a176.347429 176.347429 0 0 1-175.542857-175.542858h58.514285a117.321143 117.321143 0 0 0 117.028572 116.955429 116.882286 116.882286 0 0 0 117.028571-117.028571h58.514286a175.396571 175.396571 0 0 1-175.542857 175.542857M898.779429 904.045714a29.037714 29.037714 0 0 1-20.48-8.557714L144.603429 167.936a29.257143 29.257143 0 0 1 41.179428-41.618286l733.476572 727.552a29.257143 29.257143 0 0 1-20.48 50.102857" fill="#2c2c2c" p-id="38370"></path><path d="M708.169143 804.498286H198.656l23.259429-23.113143a29.769143 29.769143 0 0 0 8.557714-20.772572V468.114286c0-39.862857 9.654857-77.604571 25.746286-111.908572l-43.739429-43.373714A320.219429 320.219429 0 0 0 171.885714 468.114286v280.356571l-64.585143 64.585143a29.403429 29.403429 0 0 0 20.699429 50.029714h639.268571l-59.099428-58.587428zM815.542857 748.470857V468.114286a321.682286 321.682286 0 0 0-220.306286-305.517715 102.4 102.4 0 0 0-203.117714 0 320.877714 320.877714 0 0 0-145.993143 101.229715l41.252572 40.96A262.363429 262.363429 0 0 1 427.885714 212.992a29.330286 29.330286 0 0 0 22.016-28.525714V175.542857a43.885714 43.885714 0 1 1 87.625143 0.219429l0.073143 9.216a29.257143 29.257143 0 0 0 22.016 28.086857A263.094857 263.094857 0 0 1 757.028571 468.114286v292.571428c0 4.973714 1.755429 9.654857 4.169143 13.970286l89.234286 88.502857h9.069714a29.257143 29.257143 0 0 0 20.699429-50.102857l-64.585143-64.585143z" fill="#2c2c2c" p-id="38371"></path></svg>