<?xml version="1.0" standalone="no"?><!DOCTYPE svg PUBLIC "-//W3C//DTD SVG 1.1//EN" "http://www.w3.org/Graphics/SVG/1.1/DTD/svg11.dtd"><svg t="1735563256575" class="icon" viewBox="0 0 1024 1024" version="1.1" xmlns="http://www.w3.org/2000/svg" p-id="843" xmlns:xlink="http://www.w3.org/1999/xlink" width="128" height="128"><path d="M882.2 355.6c-20.2-47.8-49.2-90.8-86.1-127.7-36.9-36.9-79.9-65.9-127.7-86.1-49.5-21-102.2-31.6-156.4-31.6s-106.9 10.6-156.4 31.6c-47.9 20.2-90.8 49.2-127.7 86.1-36.9 36.9-65.9 79.9-86.1 127.7-21 49.6-31.6 102.2-31.6 156.4s10.6 106.9 31.6 156.4c20.2 47.8 49.2 90.8 86.1 127.7 36.9 36.9 79.9 65.9 127.7 86.1 49.5 21 102.2 31.6 156.4 31.6s106.9-10.6 156.4-31.6c47.9-20.2 90.8-49.2 127.7-86.1 36.9-36.9 65.9-79.9 86.1-127.7 21-49.5 31.6-102.2 31.6-156.4s-10.6-106.9-31.6-156.4zM512 877.8c-201.7 0-365.8-164.1-365.8-365.8 0-201.7 164.1-365.8 365.8-365.8 201.7 0 365.8 164.1 365.8 365.8 0 201.7-164.1 365.8-365.8 365.8z" p-id="844" fill="#2c2c2c"></path><path d="M752.8 512.2c0 9.9-8.1 18-18 18H530.2v204.6c0 9.9-8.1 18-18 18s-18-8.1-18-18V530.2H289.6c-9.9 0-18-8.1-18-18s8.1-18 18-18h204.6V289.6c0-9.9 8.1-18 18-18s18 8.1 18 18v204.6h204.6c9.9 0 18 8 18 18z" p-id="845" fill="#000000"></path></svg>