<?xml version="1.0" standalone="no"?><!DOCTYPE svg PUBLIC "-//W3C//DTD SVG 1.1//EN" "http://www.w3.org/Graphics/SVG/1.1/DTD/svg11.dtd"><svg t="1735564491089" class="icon" viewBox="0 0 1024 1024" version="1.1" xmlns="http://www.w3.org/2000/svg" p-id="46207" xmlns:xlink="http://www.w3.org/1999/xlink" width="128" height="128"><path d="M640 159.274667V105.258667A422.826667 422.826667 0 0 0 512 85.333333c-71.125333 0-137.941333 17.066667-197.674667 48.341334L513.408 332.8l86.784 86.741333c24.149333 22.784 38.4 55.466667 38.4 92.458667V386.858667L405.333333 152.192A379.392 379.392 0 0 1 512 136.533333c45.525333 0 88.192 7.125333 128 22.741334z" fill="#FA5151" p-id="46208"></path><path d="M352.725333 172.074667l-38.4-38.4c-36.992 19.882667-72.533333 45.482667-103.850666 76.8a423.210667 423.210667 0 0 0-105.216 173.482666h405.333333c32.682667 0 66.816 11.392 92.416 36.992L514.858667 332.8h-332.8c17.066667-31.274667 38.4-59.733333 64-86.741333 32.682667-31.274667 68.266667-56.874667 106.666666-73.941334z" fill="#FA9D3B" p-id="46209"></path><path d="M159.274667 384H105.258667A422.869333 422.869333 0 0 0 85.333333 512c0 71.125333 17.066667 137.941333 48.341334 197.674667L332.8 510.592l86.741333-86.784c22.784-24.149333 55.466667-38.4 92.458667-38.4H386.858667l-234.666667 233.258667A379.349333 379.349333 0 0 1 136.533333 512c0-45.525333 8.533333-88.192 22.741334-128z" fill="#FFC300" p-id="46210"></path><path d="M172.074667 671.317333l-38.4 38.4c19.925333 36.949333 45.525333 72.533333 76.8 103.808A423.210667 423.210667 0 0 0 384 918.784v-405.333333c0-32.725333 11.392-66.858667 36.992-92.458667L332.8 509.184V840.533333a413.866667 413.866667 0 0 1-86.741333-64c-31.317333-31.317333-56.917333-66.858667-73.984-105.258666z" fill="#91D300" p-id="46211"></path><path d="M384 864.725333v54.016c39.808 12.8 83.925333 19.925333 128 19.925334 71.125333 0 137.941333-17.066667 197.674667-48.341334L510.592 691.2l-86.784-86.741333c-24.149333-22.784-38.4-55.466667-38.4-92.458667v125.141333l234.666667 234.666667a379.306667 379.306667 0 0 1-106.666667 15.658667c-46.933333 0-89.6-8.533333-129.408-22.741334z" fill="#00C777" p-id="46212"></path><path d="M671.274667 851.882667l38.4 38.4c36.992-19.882667 72.533333-45.525333 103.850666-76.8A423.168 423.168 0 0 0 918.741333 640h-405.333333c-32.682667 0-66.816-11.392-92.416-36.992l88.149333 88.192H840.533333a413.866667 413.866667 0 0 1-64 86.741333 381.44 381.44 0 0 1-105.258666 73.941334z" fill="#10AEFF" p-id="46213"></path><path d="M864.725333 640h54.016A422.826667 422.826667 0 0 0 938.666667 512c0-71.082667-17.066667-137.941333-48.341334-197.674667L691.2 513.450667l-86.741333 86.741333c-22.784 24.192-55.466667 38.4-92.458667 38.4h125.141333l234.666667-234.666667c9.984 34.133333 15.658667 69.674667 15.658667 106.666667 0 46.933333-8.533333 89.6-22.741334 129.450667z" fill="#2782D7" p-id="46214"></path><path d="M851.925333 352.725333l38.4-38.4a445.781333 445.781333 0 0 0-76.8-103.850666A423.168 423.168 0 0 0 640 105.258667v405.333333c0 32.682667-11.392 66.816-36.992 92.416l88.192-88.149333v-332.8c31.274667 17.066667 59.733333 38.4 86.741333 64 31.317333 32.682667 56.917333 68.266667 73.984 106.666666z" fill="#6467F0" p-id="46215"></path></svg>