<?xml version="1.0" standalone="no"?><!DOCTYPE svg PUBLIC "-//W3C//DTD SVG 1.1//EN"
        "http://www.w3.org/Graphics/SVG/1.1/DTD/svg11.dtd">
<svg class="icon" width="200px" height="200.00px" viewBox="0 0 1024 1024" version="1.1"
     xmlns="http://www.w3.org/2000/svg">
    <path d="M0 0h1024v1024H0z" fill="#07C160"/>
    <path d="M609.42336 238.52032C647.3728 246.45632 706.56 273.54112 706.56 357.632v54.272c0 94.976-60.1088 113.90976-60.1088 146.75968S870.4 624.64 870.4 703.20128c0 59.02336-2.2016 71.84384-41.60512 74.42432 1.536-12.24704 0.64512-29.24544 0.64512-52.7872C829.44 638.464 583.68 590.49984 583.68 552.96c0-37.53984 56.32-41.55392 56.32-147.28192v-63.1808c0-43.9296-11.50976-78.1824-30.57664-103.97696z"
          fill="#FFFFFF"/>
    <path d="M460.8 204.8v604.16H218.94144C146.81088 808.96 143.36 803.584 143.36 725.42208c0-65.06496 247.95136-115.61984 247.95136-160.90112 0-45.27104-66.56-57.64096-66.56-163.36896v-60.416C324.75136 219.904 433.93024 204.8 460.8 204.8z m0 0c26.86976 0 136.04864 15.104 136.04864 135.936v60.416c0 105.728-66.56 118.09792-66.56 163.36896C530.28864 609.80224 778.24 660.3776 778.24 725.42208 778.24 803.584 774.78912 808.96 702.65856 808.96H460.8V204.8z"
          fill="#FFFFFF"/>
</svg>