<?xml version="1.0" standalone="no"?><!DOCTYPE svg PUBLIC "-//W3C//DTD SVG 1.1//EN" "http://www.w3.org/Graphics/SVG/1.1/DTD/svg11.dtd"><svg t="1736406135513" class="icon" viewBox="0 0 1024 1024" version="1.1" xmlns="http://www.w3.org/2000/svg" p-id="41056" xmlns:xlink="http://www.w3.org/1999/xlink" width="200" height="200"><path d="M0 0m136.533333 0l750.933334 0q136.533333 0 136.533333 136.533333l0 750.933334q0 136.533333-136.533333 136.533333l-750.933334 0q-136.533333 0-136.533333-136.533333l0-750.933334q0-136.533333 136.533333-136.533333Z" fill="#0079DE" p-id="41057"></path><path d="M636.962133 728.6784a7.3728 7.3728 0 0 0 2.184534 1.979733l3.003733 2.8672a132.9152 132.9152 0 0 1 36.522667 68.1984 40.413867 40.413867 0 0 0 1.399466 8.738134 43.349333 43.349333 0 0 0 72.362667 19.114666 43.349333 43.349333 0 0 0-26.077867-73.693866c-25.6-4.778667-50.0736-17.066667-69.905066-36.864l-4.164267-4.334934a10.410667 10.410667 0 0 0-14.677333 0 10.6496 10.6496 0 0 0-0.648534 13.994667zM773.802667 761.9584a3.857067 3.857067 0 0 0 0.8192-0.7168 7.3728 7.3728 0 0 0 1.160533-1.467733l2.8672-3.003734a132.9152 132.9152 0 0 1 68.1984-36.522666 40.413867 40.413867 0 0 0 8.704-1.365334 43.349333 43.349333 0 0 0 19.114667-72.362666 43.349333 43.349333 0 0 0-73.284267 23.415466c-0.170667 0.887467-0.3072 1.774933-0.375467 2.6624-4.778667 25.6-17.066667 50.0736-36.864 69.870934l-4.334933 4.164266a10.410667 10.410667 0 0 0 0 14.677334c3.959467 3.6864 9.898667 3.959467 13.994667 0.682666zM807.0144 625.117867a3.857067 3.857067 0 0 0-0.7168-0.785067 7.3728 7.3728 0 0 0-1.467733-1.194667l-3.003734-2.833066a132.9152 132.9152 0 0 1-36.522666-68.1984 40.413867 40.413867 0 0 0-1.399467-8.738134 43.349333 43.349333 0 0 0-72.362667-19.114666 43.3152 43.3152 0 0 0 23.4496 73.3184c0.887467 0.136533 1.7408 0.273067 2.628267 0.341333 25.6 4.778667 50.107733 17.1008 69.905067 36.898133 1.365333 1.365333 2.7648 2.8672 4.164266 4.334934 4.027733 4.027733 10.581333 4.027733 14.677334 0a10.615467 10.615467 0 0 0 0.682666-13.994667zM670.173867 591.906133a3.857067 3.857067 0 0 0-0.785067 0.750934 7.3728 7.3728 0 0 0-1.194667 1.467733l-2.8672 3.003733a132.9152 132.9152 0 0 1-68.1984 36.522667 40.413867 40.413867 0 0 0-8.704 1.365333 43.349333 43.349333 0 0 0-19.114666 72.362667 43.3152 43.3152 0 0 0 73.659733-26.077867 133.051733 133.051733 0 0 1 41.233067-74.069333 10.410667 10.410667 0 0 0 0-14.677333 10.615467 10.615467 0 0 0-13.994667-0.648534z" fill="#FFFFFF" p-id="41058"></path><path d="M734.549333 380.416a266.3424 266.3424 0 0 0-48.0256-68.1984c-50.210133-51.9168-120.490667-85.333333-197.8368-94.071467a355.328 355.328 0 0 0-80.0768-0.170666C330.8544 226.4064 260.232533 259.754667 209.7152 311.637333a266.24 266.24 0 0 0-48.3328 68.061867A236.3392 236.3392 0 0 0 136.533333 485.205333c0 47.172267 14.370133 93.5936 41.506134 134.3488 15.325867 23.108267 41.5744 52.906667 64.034133 71.133867l-12.4928 51.4048-3.584 14.5408a22.8352 22.8352 0 0 0-1.8432 7.406933c-0.068267 0.7168-0.2048 1.467733-0.2048 2.2528 0 13.2096 10.717867 23.995733 23.9616 23.995734a23.722667 23.722667 0 0 0 11.810133-3.242667c0.170667-0.068267 0.238933-0.136533 0.375467-0.136533l1.536-0.887467 88.814933-44.578133c19.114667 5.495467 38.058667 9.0112 58.094934 11.229866 12.970667 1.467733 26.180267 2.116267 39.2192 2.116267 13.277867 0 27.067733-0.8192 40.925866-2.3552 27.272533-3.072 53.521067-9.386667 78.370134-18.3296a43.3152 43.3152 0 0 1-29.4912-45.2608 294.775467 294.775467 0 0 1-89.873067 13.892267c-10.922667 0-21.947733-0.6144-32.8704-1.8432-2.2528-0.238933-4.539733-0.580267-6.826667-0.887467a294.843733 294.843733 0 0 1-43.997866-9.216 29.559467 29.559467 0 0 0-9.147734-1.399467 31.3344 31.3344 0 0 0-14.506666 3.7888 23.108267 23.108267 0 0 0-1.911467 0.955734l-57.002667 33.5872h-0.068266c-1.160533 0.682667-1.8432 0.955733-2.491734 0.955733a3.6864 3.6864 0 0 1-3.584-3.754667l2.116267-8.4992 2.423467-9.216 8.430933-32.119466a23.005867 23.005867 0 0 0-8.2944-25.531734 242.688 242.688 0 0 1-22.869333-19.114666 221.047467 221.047467 0 0 1-32.324267-38.2976 191.146667 191.146667 0 0 1-32.8704-105.984c0-28.740267 6.587733-56.661333 19.524267-83.080534a212.616533 212.616533 0 0 1 38.775466-54.545066c41.5744-42.666667 99.9424-70.0416 164.5568-77.073067a298.9056 298.9056 0 0 1 67.1744 0.136533c64.238933 7.338667 122.333867 34.816 163.601067 77.448534a211.217067 211.217067 0 0 1 38.570667 54.6816c12.765867 26.282667 19.217067 53.998933 19.217066 82.432 0 2.935467-0.2048 5.9392-0.341333 8.874666a43.144533 43.144533 0 0 1 53.077333 6.2464c0.750933 0.7168 1.3312 1.536 1.979734 2.2528a236.544 236.544 0 0 0-23.483734-123.118933z" fill="#FFFFFF" p-id="41059"></path></svg>