<?xml version="1.0" standalone="no"?><!DOCTYPE svg PUBLIC "-//W3C//DTD SVG 1.1//EN" "http://www.w3.org/Graphics/SVG/1.1/DTD/svg11.dtd"><svg class="icon" width="200px" height="200.00px" viewBox="0 0 1024 1024" version="1.1" xmlns="http://www.w3.org/2000/svg"><path fill="#2c2c2c" d="M933.600155 1024 89.431213 1024l-5.680519-3.28697c-3.338169-1.927639-33.061697-19.28407-47.557389-31.331174-23.879173-19.808859-36.735219-47.641868-36.164352-78.353535l0.107518-8.235345c0.156157-16.501409 0.319993-33.573687 4.930455-50.977477 10.82345-40.996249 41.226644-67.565924 71.439122-91.30174 39.54988-31.095659 86.286806-57.474619 151.52318-85.521383 31.0675-13.355236 64.273834-26.165204 101.518483-39.090369 15.966381-5.547402 32.636746-22.906393 42.473337-44.191061 7.779675-16.831642 10.086186-33.617206 6.320506-45.430075l-1.817561-2.142674c-44.303699-53.721738-79.52855-101.395605-96.209156-184.144567-13.411555-66.472827-11.486476-129.279813 5.716359-186.666113C312.390955 85.339627 369.312626 28.141482 450.612658 7.905112c12.272379-3.059135 24.199166-5.214609 36.018435-6.476662l0-1.356771L536.390035 0l0 1.42845c11.806469 1.262053 23.758855 3.417527 36.041474 6.489462 81.287233 20.22357 138.196103 77.421715 164.571223 165.408325 17.177235 57.377341 19.102314 120.171526 5.724038 186.655874-16.726685 82.769441-51.940016 130.447148-96.229635 184.154807l-1.617886 1.907159c-0.071678 0.069119-0.117757 0.143357-0.166396 0.215035-3.77848 11.926787-1.471969 28.666271 6.297466 45.450554 9.837871 21.306427 26.492877 38.642379 42.460538 44.162902 37.139691 12.930285 70.333225 25.714654 101.533842 39.118529 65.221014 28.046764 111.934901 54.425723 151.52318 85.521383 28.868507 22.688798 60.590072 50.306771 71.426322 91.327339 4.584863 17.333392 4.751259 34.377509 4.917655 50.854599l0.120317 8.332623c0.568308 30.711667-12.285179 58.544676-36.189951 78.376574-14.494412 12.024064-44.173141 29.380496-47.52155 31.308135L933.600155 1024zM511.415206 48.832242l-0.319993 0c-15.910062 0.084478-31.840603 2.175954-48.722165 6.392184-64.642466 16.081578-108.289539 60.533754-129.748283 132.123912-15.07552 50.319571-16.585888 103.638118-4.620702 162.981497 13.352676 66.188673 37.326567 103.696996 86.035932 162.766461 3.030976 3.512245 6.691698 7.761755 9.041728 13.805787 9.4206 24.355322 6.901613 55.429222-6.901613 85.308907-15.584949 33.709364-42.009987 59.78113-70.689058 69.754678-36.128512 12.548853-68.264789 24.93131-98.264792 37.833436-61.207019 26.306001-104.595537 50.711242-140.69973 79.090799-24.698355 19.381348-47.439632 38.976452-54.425723 65.42581-3.051455 11.501836-3.171773 24.831472-3.30233 38.949572l-0.107518 8.642376c-0.296954 16.045739 5.941634 29.475214 18.557046 39.928752 7.961431 6.620019 24.995309 17.213074 35.30933 23.400463l671.771965-0.258555 146.129375 0.258555c10.314021-6.187389 27.373498-16.806043 35.28629-23.377423 12.641011-10.475297 18.889839-23.904772 18.580085-39.926192l-0.120317-8.760134c-0.115198-14.072021-0.258555-27.383738-3.29977-38.833095-6.986092-26.474957-29.726088-46.070061-54.415484-65.451409-36.115713-28.379557-79.502951-52.784798-140.68949-79.090799-30.1024-12.950765-62.254037-25.333222-98.275032-37.853916-28.676511-9.953068-55.101549-36.024834-70.689058-69.734198-13.803227-29.879685-16.324773-60.953585-6.911853-85.283308 2.280912-6.010752 6.010752-10.296101 8.219985-12.856047 49.518308-60.034564 73.515238-97.553127 86.870474-163.7418 11.952386-59.356179 10.454818-112.674726-4.633502-162.981497-21.457464-71.590159-65.082777-116.042334-129.712444-132.113673-16.893081-4.22647-32.836422-6.317946-48.745204-6.402424L511.415206 48.830962z"  /></svg>