<?xml version="1.0" standalone="no"?><!DOCTYPE svg PUBLIC "-//W3C//DTD SVG 1.1//EN"
        "http://www.w3.org/Graphics/SVG/1.1/DTD/svg11.dtd">
<svg class="icon" width="200px" height="200.00px" viewBox="0 0 1024 1024" version="1.1"
     xmlns="http://www.w3.org/2000/svg">
    <path fill="#
    F7BC1B"
          d="M377.52832 352.6656h-13.312c-23.26528 0-43.25376 18.35008-43.25376 38.37952v38.37952c0 21.66784 19.94752 38.37952 43.25376 38.37952h13.312c23.26528 0 43.25376-18.35008 43.25376-38.37952v-38.37952c0-20.02944-19.94752-38.37952-43.25376-38.37952m282.70592 0h-13.312c-23.26528 0-43.25376 18.35008-43.25376 38.37952v38.37952c0 21.66784 19.94752 38.37952 43.25376 38.37952h13.312c23.26528 0 43.25376-18.35008 43.25376-38.37952v-38.37952c-0.04096-20.02944-19.98848-38.37952-43.25376-38.37952M512.12288 843.3664c-128.08192 0-236.05248-99.9424-245.76-227.5328l-1.67936-22.03648h494.87872l-1.67936 22.03648c-9.70752 127.5904-117.67808 227.5328-245.76 227.5328z m-202.01472-208.60928c17.94048 95.60064 102.68672 167.64928 202.01472 167.64928s184.07424-72.04864 202.01472-167.64928H310.10816zM514.048 57.344c120.91392 0 234.53696 47.06304 320.06144 132.54656C919.59296 275.41504 966.656 389.03808 966.656 509.952s-47.06304 234.53696-132.54656 320.06144C748.58496 915.49696 634.96192 962.56 514.048 962.56s-234.53696-47.06304-320.06144-132.54656C108.50304 744.48896 61.44 630.86592 61.44 509.952s47.06304-234.53696 132.54656-320.06144C279.51104 104.40704 393.13408 57.344 514.048 57.344m0-57.344C232.40704 0 4.096 228.31104 4.096 509.952S232.40704 1019.904 514.048 1019.904 1024 791.59296 1024 509.952 795.68896 0 514.048 0z"/>
</svg>