<?xml version="1.0" standalone="no"?><!DOCTYPE svg PUBLIC "-//W3C//DTD SVG 1.1//EN" "http://www.w3.org/Graphics/SVG/1.1/DTD/svg11.dtd"><svg t="1735564879383" class="icon" viewBox="0 0 1024 1024" version="1.1" xmlns="http://www.w3.org/2000/svg" p-id="53657" xmlns:xlink="http://www.w3.org/1999/xlink" width="128" height="128"><path d="M896.768 496.981333c-0.085333-2.389333-0.597333-4.693333-1.536-6.997333-3.157333-7.68-10.581333-12.629333-18.944-12.629333h-45.312L522.496 168.874667v196.181333c-6.314667-0.938667-12.8-1.450667-19.370667-1.450667-6.741333 0-13.397333 0.512-19.882666 1.450667V141.738667c0.597333-16.042667-1.109333-25.173333 2.986666-30.976l-0.341333 0.341333c3.498667-5.376 10.24-8.192 17.834667-8.192 5.461333 0 10.581333 2.133333 14.506666 5.973333l372.565334 372.565334c4.096 4.352 6.144 9.898667 5.973333 15.530666z" fill="#5382EF" p-id="53658"></path><path d="M483.242667 628.821333c0.170667 0 0.341333 0.085333 0.512 0.085334M483.669333 825.088l-0.426666-0.512" fill="#50BD81" p-id="53659"></path><path d="M522.496 628.906667c0.170667 0 0.341333-0.085333 0.512-0.085334M522.922667 824.576l-0.426667 0.512" fill="#F95553" p-id="53660"></path><path d="M522.922667 824.576v45.824c0 11.093333-8.874667 20.138667-19.882667 20.48h-0.597333c-5.461333 0-10.581333-2.133333-14.506667-5.973333L115.370667 512.341333c-4.096-4.096-6.229333-9.642667-5.973334-15.274666 0.085333 2.645333 0.768 5.290667 1.962667 7.765333 3.413333 7.253333 10.922667 11.776 19.029333 11.776h44.885334l308.053333 308.053333 0.512 0.512V594.261333c6.314667 1.28 12.714667 1.877333 19.370667 1.877334 6.656 0 13.141333-0.682667 19.370666-1.877334v230.826667l0.341334-0.512z" fill="#F95553" p-id="53661"></path><path d="M129.877333 477.354667h45.312l308.053334-308.053334v-48.896c0-3.669333 0.938667-6.741333 2.645333-9.216L115.370667 481.621333c-4.181333 4.181333-6.229333 9.728-5.973334 15.36 0.085333-2.389333 0.597333-4.778667 1.536-6.997333 3.157333-7.68 10.581333-12.629333 18.944-12.629333z" fill="#FF7519" p-id="53662"></path><path d="M483.242667 141.738667c0.597333-16.042667-1.109333-25.173333 2.986666-30.976l-0.341333 0.341333c-1.621333 2.56-2.645333 5.632-2.645333 9.216v21.418667zM369.749333 496.981333c0 6.656 0.512 13.226667 1.450667 19.626667H130.304c-8.021333 0-15.616-4.522667-19.029333-11.776-1.194667-2.474667-1.792-5.12-1.962667-7.765333 0.085333-2.389333 0.597333-4.778667 1.536-7.082667 3.157333-7.68 10.581333-12.629333 18.944-12.629333H371.2c-0.938667 6.4-1.450667 12.970667-1.450667 19.626666z" fill="#FF7519" p-id="53663"></path><path d="M634.965333 477.354667h-17.322666c-8.277333-48.554667-46.592-86.869333-95.232-95.061334v-17.237333c58.026667 8.448 103.936 54.357333 112.554666 112.298667z" fill="#5382EF" p-id="53664"></path><path d="M483.242667 382.378667v-17.322667C425.472 373.76 379.733333 419.584 371.2 477.354667h17.237333c8.277333-48.384 46.421333-86.613333 94.805334-94.976z" fill="#FF7519" p-id="53665"></path><path d="M503.04 380.672c6.570667 0 13.056 0.597333 19.370667 1.621333v-17.237333c-6.314667-0.938667-12.8-1.450667-19.370667-1.450667-6.741333 0-13.397333 0.512-19.882667 1.450667v17.322667c6.485333-1.109333 13.141333-1.706667 19.882667-1.706667z" fill="#5382EF" p-id="53666"></path><path d="M386.816 496.981333c0 6.656 0.597333 13.226667 1.706667 19.626667H371.2c-0.938667-6.4-1.450667-12.970667-1.450667-19.626667s0.512-13.226667 1.450667-19.626666h17.322667c-1.194667 6.4-1.706667 12.885333-1.706667 19.626666z" fill="#FF7519" p-id="53667"></path><path d="M634.965333 516.608c-8.533333 57.770667-54.784 103.68-112.469333 112.298667v-34.645334c38.912-7.936 70.058667-38.741333 77.824-77.653333h34.645333z" fill="#50BD81" p-id="53668"></path><path d="M483.669333 594.176V628.906667C425.984 620.202667 379.733333 574.378667 371.2 516.608h34.645333c7.850667 38.912 38.997333 69.632 77.824 77.568z" fill="#F95553" p-id="53669"></path><path d="M483.242667 399.786667v-17.408c-48.384 8.362667-86.528 46.506667-94.72 94.976h17.322666c7.850667-38.912 38.485333-69.632 77.397334-77.568z" fill="#FF7519" p-id="53670"></path><path d="M617.642667 477.354667h-17.408c-7.850667-39.082667-38.741333-69.888-77.824-77.653334V382.293333c48.64 8.192 87.04 46.506667 95.232 95.061334z" fill="#5382EF" p-id="53671"></path><path d="M503.04 397.738667c6.656 0 13.141333 0.682667 19.370667 1.877333V382.293333c-6.314667-1.024-12.8-1.621333-19.370667-1.621333-6.741333 0-13.397333 0.597333-19.882667 1.706667v17.408c6.485333-1.365333 13.141333-2.048 19.882667-2.048z" fill="#5382EF" p-id="53672"></path><path d="M890.794667 512.341333L518.144 884.906667c-1.962667 1.962667-4.181333 3.413333-6.656 4.437333-2.474667 1.024-5.12 1.536-7.850667 1.536h-0.597333c11.008-0.341333 19.882667-9.386667 19.882667-20.48v-45.824l308.053333-308.053333H600.32c1.28-6.314667 1.962667-12.885333 1.962667-19.626667s-0.682667-13.312-1.962667-19.626667h275.968c8.277333 0 15.701333 4.949333 18.944 12.629334 0.938667 2.304 1.450667 4.608 1.536 6.997333 0.170667 5.717333-1.877333 11.264-5.973333 15.445333z" fill="#50BD81" p-id="53673"></path><path d="M403.882667 496.981333c0 6.741333 0.682667 13.312 1.962666 19.626667h-17.322666c-1.109333-6.4-1.706667-12.970667-1.706667-19.626667 0-6.656 0.597333-13.226667 1.706667-19.626666h17.322666c-1.28 6.314667-1.962667 12.885333-1.962666 19.626666z" fill="#FF7519" p-id="53674"></path></svg>