<?xml version="1.0" standalone="no"?><!DOCTYPE svg PUBLIC "-//W3C//DTD SVG 1.1//EN"
        "http://www.w3.org/Graphics/SVG/1.1/DTD/svg11.dtd">
<svg class="icon" width="200px" height="200.00px" viewBox="0 0 1024 1024" version="1.1"
     xmlns="http://www.w3.org/2000/svg">
    <path fill="#2680DD"
          d="M896 878.933333l-772.266667-85.333333c-12.8 0-21.333333-12.8-21.333333-25.6V256c0-8.533333 4.266667-12.8 8.533333-17.066667 4.266667-4.266667 12.8-8.533333 21.333334-4.266666l768 85.333333c12.8 0 21.333333 12.8 21.333333 25.6v512c0 8.533333-4.266667 12.8-8.533333 17.066667-4.266667 0-12.8 4.266667-17.066667 4.266666zM153.6 746.666667l716.8 81.066666V362.666667L153.6 285.866667v460.8z"/>
    <path fill="#07C160"
          d="M810.666667 358.4c-12.8 0-25.6-12.8-25.6-25.6V200.533333L132.266667 281.6c-12.8 0-25.6-8.533333-29.866667-21.333333 0-12.8 8.533333-25.6 21.333333-29.866667l682.666667-85.333333c8.533333 0 12.8 0 21.333333 4.266666 4.266667 4.266667 8.533333 12.8 8.533334 17.066667v162.133333c0 17.066667-12.8 29.866667-25.6 29.866667z"/>
</svg>