<?xml version="1.0" standalone="no"?><!DOCTYPE svg PUBLIC "-//W3C//DTD SVG 1.1//EN"
        "http://www.w3.org/Graphics/SVG/1.1/DTD/svg11.dtd">
<svg class="icon" width="200px" height="200.00px" viewBox="0 0 1024 1024" version="1.1"
     xmlns="http://www.w3.org/2000/svg">
    <path d="M514.745507 455.51564067l375.929693-215.605426-391.592441-176.11316-364.049808 176.11316L514.745507 455.51564067z m-37.824185 54.507965L103.165774 295.44663167c-44.676081-25.622261-42.369855-90.793183 3.972823-113.21433L471.188406 6.14585467a64.071235 64.071235 0 0 1 54.191861-0.768742l391.586504 176.114644c47.946945 21.555942 51.713484 81.492591 5.913971 107.242481L540.235687 510.31299667a64.037101 64.037101 0 0 1-63.280232-0.289391h-0.034133z m0 0"
          fill="#0379FB"/>
    <path d="M546.96589 950.87638267l382.912185-214.516128V287.88535667L546.96589 510.89029567v439.986087z m-64.053426 0V510.89029567a64.053426 64.053426 0 0 1 31.834527-55.373171l382.912186-223.003455c42.691896-24.849067 96.272325 5.957009 96.272324 55.373171v448.474898a64.060846 64.060846 0 0 1-32.732382 55.886656L578.285449 1006.76303767c-42.691896 23.92153-95.372986-6.954296-95.372985-55.886655z m0 0"
          fill="#E8541E"/>
    <path d="M483.615907 513.32563467v436.973449L94.936672 736.45523467V289.86063767c-19.451548-15.413426-26.932684-39.529368-22.851524-61.744232-23.333843 8.993391-41.200417 31.350725-41.200418 59.866899v448.47193A64.04749 64.04749 0 0 0 64.066783 792.60011567l388.674782 213.840881c42.691896 23.477797 94.927768-7.399513 94.927768-56.140429V510.31299667c0-1.374238 0.087559 1.359397 0 0-17.492591 9.834852-45.86778 10.815814-64.053426 3.012638z"
          fill="#F4A738"/>
</svg>