<?xml version="1.0" standalone="no"?><!DOCTYPE svg PUBLIC "-//W3C//DTD SVG 1.1//EN"
        "http://www.w3.org/Graphics/SVG/1.1/DTD/svg11.dtd">
<svg xmlns:xlink="http://www.w3.org/1999/xlink" t="1736411615007" class="icon" viewBox="0 0 1024 1024" version="1.1"
     xmlns="http://www.w3.org/2000/svg" p-id="72668" width="200px" height="200px">
    <path d="M1020.589509 468.089925c-2.557868-30.694421-25.578684-55.420483-55.420483-61.388843l-53.715237-10.231473c-5.115737-17.905079-11.084097-34.957535-18.757702-51.157369l35.810158-52.009992c16.199833-23.873439 16.199833-54.56786-0.852623-78.441299-23.020816-31.547044-49.452123-61.388843-79.293922-87.82015-12.789342-11.084097-28.989176-17.052456-45.189009-17.052456-13.641965 0-27.28393 4.263114-38.368027 11.936719l-43.483763 29.841799c-22.168193-12.789342-45.189009-23.873439-68.209825-32.399667l-11.084097-59.683597C636.909242 30.694421 613.888426 8.526228 584.899251 4.263114 557.615321 1.705246 534.594505 0 511.573689 0c-11.936719 0-23.873439 0.852623-33.25229 1.705246h-3.410491c-30.694421 2.557868-56.273106 24.726062-62.241466 55.420483l-9.378851 52.009991c-29.841799 7.673605-57.978351 18.757702-85.262281 33.25229L271.986678 110.840966c-11.936719-7.673605-25.578684-11.936719-38.368027-11.93672-15.347211 0-30.694421 5.115737-42.631141 15.347211-28.989176 22.168193-54.56786 47.746878-76.736053 75.883431-19.610325 23.020816-20.462948 56.273106-3.410491 81.85179l32.399667 46.894255c-13.641965 27.28393-24.726062 55.420483-33.25229 85.262281l-52.009992 9.378851c-30.694421 5.96836-53.715237 31.547044-55.420483 62.241465v3.410492c-1.705246 8.526228-2.557868 20.462948-2.557868 32.399667 0 23.020816 1.705246 46.041632 5.96836 74.178184 4.263114 28.989176 26.431307 52.009992 55.420483 57.125729l59.683597 11.084097c8.526228 23.873439 19.610325 46.894255 32.399667 68.209825l-29.841799 43.483763c-17.905079 25.578684-15.347211 60.53622 5.115737 83.557036 26.431307 29.841799 55.420483 56.273106 87.82015 79.293922 11.936719 8.526228 25.578684 12.789342 39.220649 12.789342 13.641965 0 27.28393-4.263114 38.368027-11.936719l52.009992-35.810159c17.052456 7.673605 34.104913 13.641965 51.157368 18.757702l10.231474 53.715238c5.96836 29.841799 30.694421 52.862614 61.388843 55.420483 12.789342 0.852623 27.28393 2.557868 43.483763 2.557868 25.578684 0 52.009992-2.557868 80.999168-6.820983 28.136553-4.263114 51.157369-26.431307 56.273106-55.420482l11.084096-60.53622c12.789342-5.115737 24.726062-10.231474 36.662781-16.199834l47.746878 33.25229c11.936719 7.673605 25.578684 11.936719 38.368026 11.936719 14.494588 0 29.841799-5.115737 41.778518-14.494587 33.25229-26.431307 63.946711-56.273106 89.525396-89.525396 17.905079-23.873439 19.610325-56.273106 2.557868-80.999167l-33.25229-47.746878c5.96836-11.936719 11.084097-23.873439 16.199834-36.662781l60.53622-11.084096c28.136553-5.115737 50.304746-28.136553 55.420483-56.273106 4.263114-28.989176 6.820983-55.420483 6.820982-80.999168 0-17.052456-0.852623-31.547044-2.557868-44.336386z m-71.620317 113.398834l-100.609492 18.757702c-9.378851 35.810158-24.726062 69.915071-44.336386 99.75687l57.125728 82.704413c-23.020816 28.989176-48.5995 55.420483-77.588676 77.588676l-82.704413-57.125729c-30.694421 19.610325-63.946711 34.104913-99.756869 44.336386l-18.757702 100.609493c-23.020816 3.410491-46.041632 5.96836-69.915071 5.968359-12.789342 0-25.578684-0.852623-37.515403-1.705245l-17.90508-98.051624c-41.778518-6.820983-80.999167-20.462948-115.956702-40.925895l-84.409659 57.978351c-28.136553-19.610325-53.715237-42.631141-75.88343-68.209825l56.273105-80.999167c-28.989176-37.515404-50.304746-80.999167-61.388842-128.746045l-102.314738-17.905079C69.915071 555.057452 68.209825 533.741882 68.209825 511.573689c0-11.084097 0.852623-21.31557 1.705246-31.547045l97.199001-17.905079c7.673605-53.715237 27.28393-103.167361 56.273105-146.651124l-57.125728-82.704413c19.610325-23.873439 41.778518-46.041632 65.651956-65.651956l82.704413 57.125728c42.631141-28.989176 92.935887-48.5995 146.651125-56.273106l17.905079-97.199c11.084097-1.705246 21.31557-2.557868 32.399667-2.557869 22.168193 0 43.483764 1.705246 63.946711 5.115737l18.757702 99.756869c47.746878 11.936719 91.230641 32.399667 128.746045 61.388843l80.999167-56.273106c25.578684 22.168193 48.5995 47.746878 68.209825 75.883431l-57.978351 84.409658c20.462948 34.957535 34.104913 74.178185 40.925895 115.956703l98.051623 17.905079c0.852623 12.789342 1.705246 24.726062 1.705246 37.515404 0 25.578684-2.557868 48.5995-5.96836 71.620316zM511.573689 341.049126c-93.78851 0-170.524563 76.736053-170.524563 170.524563s76.736053 170.524563 170.524563 170.524562 170.524563-76.736053 170.524562-170.524562-76.736053-170.524563-170.524562-170.524563z m0 272.8393c-56.273106 0-102.314738-46.041632-102.314738-102.314737s46.041632-102.314738 102.314738-102.314738 102.314738 46.041632 102.314737 102.314738-46.041632 102.314738-102.314737 102.314737z"
          fill="#2680DD" p-id="72669"></path>
</svg>