<?xml version="1.0" standalone="no"?><!DOCTYPE svg PUBLIC "-//W3C//DTD SVG 1.1//EN"
        "http://www.w3.org/Graphics/SVG/1.1/DTD/svg11.dtd">
<svg class="icon" width="200px" height="200.00px" viewBox="0 0 1024 1024" version="1.1"
     xmlns="http://www.w3.org/2000/svg">
    <path fill="#2680DD"
          d="M127.658667 170.666667h768.682666c22.912 0 42.325333 20.522667 42.325334 45.866666v590.933334c0 25.429333-18.944 45.866667-42.325334 45.866666H127.658667C104.746667 853.333333 85.333333 832.810667 85.333333 807.466667V216.533333C85.333333 191.104 104.277333 170.666667 127.658667 170.666667zM136.533333 667.136V802.133333h750.933334v-119.722666l-143.957334-129.536-93.354666 79.36L707.498667 682.666667h-75.52l-247.722667-215.893334L136.533333 667.136z m0-65.877333l213.333334-172.501334c19.712-15.957333 51.413333-15.189333 70.4 1.536l191.018666 167.808 97.365334-82.773333c19.712-16.810667 51.114667-16.469333 70.229333 0.725333L887.466667 614.826667V221.866667H136.533333v379.392z"
          fill-opacity=".9"/>
</svg>