<?xml version="1.0" standalone="no"?><!DOCTYPE svg PUBLIC "-//W3C//DTD SVG 1.1//EN"
        "http://www.w3.org/Graphics/SVG/1.1/DTD/svg11.dtd">
<svg t="1736415657652" class="icon" viewBox="0 0 1024 1024" version="1.1"
     xmlns="http://www.w3.org/2000/svg" p-id="76292" width="200" height="200">
    <path d="M512 118.153846c61.046154 0 118.153846 13.784615 171.323077 39.384616 25.6 11.815385 35.446154 43.323077 23.630769 66.953846-11.815385 25.6-43.323077 35.446154-66.953846 23.630769-39.384615-19.692308-82.707692-29.538462-128-29.538462-161.476923 0-293.415385 131.938462-293.415385 293.415385S350.523077 805.415385 512 805.415385 805.415385 673.476923 805.415385 512c0-51.2-11.815385-98.461538-37.415385-141.784615-13.784615-23.630769-3.938462-55.138462 19.692308-68.923077s55.138462-3.938462 68.923077 19.692307A393.846154 393.846154 0 0 1 905.846154 512c0 216.615385-177.230769 393.846154-393.846154 393.846154S118.153846 728.615385 118.153846 512 295.384615 118.153846 512 118.153846z"
          p-id="76293"></path>
</svg>